<svg id="workspace" xmlns="http://www.w3.org/2000/svg" xmlns:xlink="http://www.w3.org/1999/xlink" style="text-rendering: geometricprecision; cursor: auto;"><desc>Created with Snap</desc><defs><linearGradient x1="0" y1="0.5" x2="1" y2="0.5" id="linearGradientSkd30lrk71c"><stop offset="0%" stop-color="#0a314d"/><stop offset="100%" stop-color="#0a314d"/></linearGradient><linearGradient x1="0" y1="0.5" x2="1" y2="0.5" id="linearGradientSkd30lrk71l"><stop offset="0%" stop-color="#0a314d"/><stop offset="100%" stop-color="#0a314d"/></linearGradient><linearGradient x1="0" y1="0.5" x2="1" y2="0.5" id="linearGradientSkd30lrk71u"><stop offset="0%" stop-color="#616e75"/><stop offset="100%" stop-color="#616e75"/></linearGradient><linearGradient x1="0" y1="0.5" x2="1" y2="0.5" id="linearGradientSkd30lrk723"><stop offset="0%" stop-color="#ffffff"/><stop offset="100%" stop-color="#ffffff"/></linearGradient><linearGradient x1="0" y1="0.5" x2="1" y2="0.5" id="linearGradientSkd30lrk72c"><stop offset="0%" stop-color="#0a314d"/><stop offset="100%" stop-color="#0a314d"/></linearGradient><linearGradient x1="0" y1="0.5" x2="1" y2="0.5" id="linearGradientSkd30lrk72l"><stop offset="0%" stop-color="#1761a0"/><stop offset="100%" stop-color="#1761a0"/></linearGradient><linearGradient x1="0" y1="0.5" x2="1" y2="0.5" id="linearGradientSkd30lrk72u"><stop offset="0%" stop-color="#dbdbdb"/><stop offset="100%" stop-color="#dbdbdb"/></linearGradient><linearGradient x1="0" y1="0.5" x2="1" y2="0.5" id="linearGradientSkd30lrk734"><stop offset="0%" stop-color="#0a314d"/><stop offset="100%" stop-color="#0a314d"/></linearGradient><linearGradient x1="0" y1="0.5" x2="1" y2="0.5" id="linearGradientSkd30lrk737"><stop offset="0%" stop-color="#0a314d"/><stop offset="100%" stop-color="#0a314d"/></linearGradient><linearGradient x1="0" y1="0.5" x2="1" y2="0.5" id="linearGradientSkd30lrk73a"><stop offset="0%" stop-color="#616e75"/><stop offset="100%" stop-color="#616e75"/></linearGradient><linearGradient x1="0" y1="0.5" x2="1" y2="0.5" id="linearGradientSkd30lrk73d"><stop offset="0%" stop-color="#ffffff"/><stop offset="100%" stop-color="#ffffff"/></linearGradient><linearGradient x1="0" y1="0.5" x2="1" y2="0.5" id="linearGradientSkd30lrk73g"><stop offset="0%" stop-color="#0a314d"/><stop offset="100%" stop-color="#0a314d"/></linearGradient><linearGradient x1="0" y1="0.5" x2="1" y2="0.5" id="linearGradientSkd30lrk73j"><stop offset="0%" stop-color="#1761a0"/><stop offset="100%" stop-color="#1761a0"/></linearGradient><linearGradient x1="0" y1="0.5" x2="1" y2="0.5" id="linearGradientSkd30lrk73m"><stop offset="0%" stop-color="#dbdbdb"/><stop offset="100%" stop-color="#dbdbdb"/></linearGradient><linearGradient x1="0" y1="0.5" x2="1" y2="0.5" id="linearGradientSkd30lrk73s"><stop offset="0%" stop-color="#0a314d"/><stop offset="100%" stop-color="#0a314d"/></linearGradient><linearGradient x1="0" y1="0.5" x2="1" y2="0.5" id="linearGradientSkd30lrk73v"><stop offset="0%" stop-color="#0a314d"/><stop offset="100%" stop-color="#0a314d"/></linearGradient><linearGradient x1="0" y1="0.5" x2="1" y2="0.5" id="linearGradientSkd30lrk73y"><stop offset="0%" stop-color="#616e75"/><stop offset="100%" stop-color="#616e75"/></linearGradient><linearGradient x1="0" y1="0.5" x2="1" y2="0.5" id="linearGradientSkd30lrk741"><stop offset="0%" stop-color="#ffffff"/><stop offset="100%" stop-color="#ffffff"/></linearGradient><linearGradient x1="0" y1="0.5" x2="1" y2="0.5" id="linearGradientSkd30lrk744"><stop offset="0%" stop-color="#0a314d"/><stop offset="100%" stop-color="#0a314d"/></linearGradient><linearGradient x1="0" y1="0.5" x2="1" y2="0.5" id="linearGradientSkd30lrk747"><stop offset="0%" stop-color="#1761a0"/><stop offset="100%" stop-color="#1761a0"/></linearGradient><linearGradient x1="0" y1="0.5" x2="1" y2="0.5" id="linearGradientSkd30lrk74a"><stop offset="0%" stop-color="#dbdbdb"/><stop offset="100%" stop-color="#dbdbdb"/></linearGradient><linearGradient x1="0" y1="0.5" x2="1" y2="0.5" id="linearGradientSkd30lrk74g"><stop offset="0%" stop-color="#616e75"/><stop offset="100%" stop-color="#616e75"/></linearGradient><linearGradient x1="0" y1="0.5" x2="1" y2="0.5" id="linearGradientSkd30lrk74j"><stop offset="0%" stop-color="#616e75"/><stop offset="100%" stop-color="#616e75"/></linearGradient><linearGradient x1="0" y1="0.5" x2="1" y2="0.5" id="linearGradientSkd30lrk74m"><stop offset="0%" stop-color="#616e75"/><stop offset="100%" stop-color="#616e75"/></linearGradient><linearGradient x1="0" y1="0.5" x2="1" y2="0.5" id="linearGradientSkd30lrk74p"><stop offset="0%" stop-color="#616e75"/><stop offset="100%" stop-color="#616e75"/></linearGradient><linearGradient x1="0" y1="0.5" x2="1" y2="0.5" id="linearGradientSkd30lrk74s"><stop offset="0%" stop-color="#0a314d"/><stop offset="100%" stop-color="#0a314d"/></linearGradient><linearGradient x1="0" y1="0.5" x2="1" y2="0.5" id="linearGradientSkd30lrk74v"><stop offset="0%" stop-color="#0a314d"/><stop offset="100%" stop-color="#0a314d"/></linearGradient><linearGradient x1="0" y1="0.5" x2="1" y2="0.5" id="linearGradientSkd30lrk74y"><stop offset="0%" stop-color="#616e75"/><stop offset="100%" stop-color="#616e75"/></linearGradient><linearGradient x1="0" y1="0.5" x2="1" y2="0.5" id="linearGradientSkd30lrk751"><stop offset="0%" stop-color="#616e75"/><stop offset="100%" stop-color="#616e75"/></linearGradient><linearGradient x1="0" y1="0.5" x2="1" y2="0.5" id="linearGradientSkd30lrk754"><stop offset="0%" stop-color="#616e75"/><stop offset="100%" stop-color="#616e75"/></linearGradient><linearGradient x1="0" y1="0.5" x2="1" y2="0.5" id="linearGradientSkd30lrk757"><stop offset="0%" stop-color="#616e75"/><stop offset="100%" stop-color="#616e75"/></linearGradient><linearGradient x1="0" y1="0.5" x2="1" y2="0.5" id="linearGradientSkd30lrk75a"><stop offset="0%" stop-color="#616e75"/><stop offset="100%" stop-color="#616e75"/></linearGradient><linearGradient x1="0" y1="0.5" x2="1" y2="0.5" id="linearGradientSkd30lrk75d"><stop offset="0%" stop-color="#0a314d"/><stop offset="100%" stop-color="#0a314d"/></linearGradient><linearGradient x1="0" y1="0.5" x2="1" y2="0.5" id="linearGradientSkd30lrk75g"><stop offset="0%" stop-color="#0a314d"/><stop offset="100%" stop-color="#0a314d"/></linearGradient><linearGradient x1="0" y1="0.5" x2="1" y2="0.5" id="linearGradientSkd30lrk75j"><stop offset="0%" stop-color="#616e75"/><stop offset="100%" stop-color="#616e75"/></linearGradient><linearGradient x1="0" y1="0.5" x2="1" y2="0.5" id="linearGradientSkd30lrk75p"><stop offset="0%" stop-color="#616e75"/><stop offset="100%" stop-color="#0a314d"/></linearGradient><linearGradient x1="0" y1="0.5" x2="1" y2="0.5" id="linearGradientSkd30lrk75s"><stop offset="0%" stop-color="#616e75"/><stop offset="100%" stop-color="#616e75"/></linearGradient><linearGradient x1="0" y1="0.5" x2="1" y2="0.5" id="linearGradientSkd30lrk75v"><stop offset="0%" stop-color="#616e75"/><stop offset="100%" stop-color="#616e75"/></linearGradient><linearGradient x1="0" y1="0.5" x2="1" y2="0.5" id="linearGradientSkd30lrk75y"><stop offset="0%" stop-color="#616e75"/><stop offset="100%" stop-color="#616e75"/></linearGradient><linearGradient x1="0" y1="0.5" x2="1" y2="0.5" id="linearGradientSkd30lrk761"><stop offset="0%" stop-color="#616e75"/><stop offset="100%" stop-color="#616e75"/></linearGradient><linearGradient x1="0" y1="0.5" x2="1" y2="0.5" id="linearGradientSkd30lrk764"><stop offset="0%" stop-color="#616e75"/><stop offset="100%" stop-color="#616e75"/></linearGradient><linearGradient x1="0" y1="0.5" x2="1" y2="0.5" id="linearGradientSkd30lrk767"><stop offset="0%" stop-color="#616e75"/><stop offset="100%" stop-color="#616e75"/></linearGradient><linearGradient x1="0" y1="0.5" x2="1" y2="0.5" id="linearGradientSkd30lrk76a"><stop offset="0%" stop-color="#616e75"/><stop offset="100%" stop-color="#616e75"/></linearGradient><linearGradient x1="0" y1="0.5" x2="1" y2="0.5" id="linearGradientSkd30lrk76d"><stop offset="0%" stop-color="#0a314d"/><stop offset="100%" stop-color="#0a314d"/></linearGradient><linearGradient x1="0" y1="0.5" x2="1" y2="0.5" id="linearGradientSkd30lrk76g"><stop offset="0%" stop-color="#0a314d"/><stop offset="100%" stop-color="#0a314d"/></linearGradient><linearGradient x1="0" y1="0.5" x2="1" y2="0.5" id="linearGradientSkd30lrk76j"><stop offset="0%" stop-color="#0a314d"/><stop offset="100%" stop-color="#0a314d"/></linearGradient><linearGradient x1="0" y1="0.5" x2="1" y2="0.5" id="linearGradientSkd30lrk76m"><stop offset="0%" stop-color="#0a314d"/><stop offset="100%" stop-color="#0a314d"/></linearGradient></defs><g class="selector-part"><rect x="0" y="0" width="588" height="703" fill="rgba(255,255,255,0)" style="transition: all 0.6s ease 0s;"/></g><g class="selector-part" transform="matrix(1,0,0,1,295,162)"><rect x="0" y="0" width="0" height="0" fill="rgba(255,255,255,0)" style="cursor: move;"/></g><g class="svg-clip svg-visible" transform="matrix(-3.0726,0,0,3.0084,406.2345,272.8059)" style="cursor: move; opacity: 1;"><rect x="0" y="0" width="34" height="46" fill="none" class="svg-hitbox" style=""/><svg width="34.333000000000006" height="46.709" viewBox="31.076,45.441,34.333000000000006,46.709"><desc>Created with Snap</desc><defs/><g/><g/><g><path d="M36.076,87.15c2.732-1.021,7.715-3.151,12.428-6.381c7.665-5.245,11.905-15.764,11.905-22.998c0-2.188,0-7.33,0-7.33  l-24.268,0.205L36.076,87.15z" stroke="none" fill="url('#linearGradientSkd30lrk76j')" style=""/></g></svg></g><g class="svg-clip svg-visible" transform="matrix(3.0726,0,0,3.0084,300.7655,167.3101)" style="cursor: move; opacity: 1;"><rect x="0" y="0" width="34" height="45" fill="none" class="svg-hitbox" style=""/><svg width="34.381" height="45.893" viewBox="6.708,9.655000000000001,34.381,45.893"><desc>Created with Snap</desc><defs/><g/><g/><g><path d="M11.817,24.441C11.78,31.534,11.729,42,11.708,50.548l24.295-0.101l0.086-35.792C30.9,18.086,22.31,22.729,11.817,24.441z" stroke="none" fill="url('#linearGradientSkd30lrk76m')" style=""/></g></svg></g><g class="svg-clip svg-visible" transform="matrix(3.0726,0,0,3.0726,263.0226,126.5422)" style="cursor: move; opacity: 1;"><rect x="0" y="0" width="82" height="109" fill="none" class="svg-hitbox" style=""/><svg width="82.42400696190795" height="109.443" viewBox="-5,-5,82.42400696190795,109.443"><desc>Created with Snap</desc><defs/><g/><g/><g><path d="M72.278,19.521l-0.031-6.08h-3.49c-16.622,0-30.129-11.37-30.259-11.481L36.215,0l-2.284,1.954  C33.797,2.069,20.29,13.441,3.668,13.441h-3.49l-0.031,6.08C0.106,27.021,0,46.93,0,57.771c0,10.16,5.285,24.713,16.89,32.657  c7.647,5.233,15.94,7.984,18.3,8.703l1.022,0.312l1.022-0.311c2.36-0.719,10.656-3.47,18.3-8.701  c11.604-7.944,16.89-22.494,16.89-32.654C72.425,46.936,72.318,27.021,72.278,19.521z M51.571,84.638  c-5.975,4.088-12.427,6.489-15.359,7.456c-2.932-0.966-9.382-3.366-15.358-7.456C11.771,78.419,7.018,66.415,7.018,57.771  c0-10.479,0.1-29.476,0.143-37.474c13.541-1.055,24.483-7.929,29.052-11.252c4.569,3.323,15.511,10.197,29.052,11.252  c0.043,7.999,0.143,26.995,0.143,37.474C65.407,66.415,60.654,78.419,51.571,84.638z" stroke="none" fill="url('#linearGradientSkd30lrk76a')" style=""/></g></svg></g><g class="svg-clip svg-visible" transform="matrix(0.7467,0,0,0.7467,337.8267,262.76)" style="cursor: move; opacity: 1;"><rect x="0" y="0" width="46" height="81" fill="none" class="svg-hitbox" style=""/><svg width="46.8" height="81.60000000000001" viewBox="21.6,4.200000000000003,46.8,81.60000000000001"><desc>Created with Snap</desc><defs/><g/><g/><g><path d="M63.4,27.6c0-10.2-8.2-18.4-18.4-18.4s-18.4,8.2-18.4,18.4c0,6.7,3.6,12.6,9,15.8l-4.4,33.4  c0,2.2,1.7,4,3.8,4h9.7c0.1,0,0.2,0,0.3,0c0.1,0,0.2,0,0.3,0h9.7c2.1,0,3.8-1.8,3.8-4l-4.4-33.4C59.8,40.1,63.4,34.3,63.4,27.6z" stroke="none" fill="url('#linearGradientSkd30lrk741')" style=""/></g></svg></g><g class="svg-clip svg-visible" transform="matrix(-1.0744,-0.0188,0.0188,-1.0744,459.9225,347.1892)" style="cursor: move; opacity: 1;"><rect x="0" y="0" width="50" height="100" fill="none" class="svg-hitbox" style=""/><svg width="50.833" height="100" viewBox="19.583,-4.9999999999999964,50.833,100"><desc>Created with Snap</desc><defs/><g/><g/><g><path d="M38.583,36.426V90h9v-5.5h17.833v-9H47.583v-3.334h14v-9h-14v-26.74c8.038-2.013,14-9.263,14-17.926    c0-10.217-8.283-18.5-18.5-18.5c-10.217,0-18.5,8.283-18.5,18.5C24.583,27.162,30.545,34.413,38.583,36.426z M43.083,8.333    c5.615,0,10.167,4.552,10.167,10.167c0,5.615-4.552,10.167-10.167,10.167S32.917,24.115,32.917,18.5    C32.917,12.885,37.468,8.333,43.083,8.333z" stroke="none" fill="url('#linearGradientSkd30lrk744')" style=""/></g></svg></g><g class="svg-clip svg-visible" transform="matrix(1.6937,-0.0296,0.0296,1.6937,291.0443,193.6947)" style="cursor: move; opacity: 1;"><rect x="0" y="0" width="22" height="22" fill="none" class="svg-hitbox" style=""/><svg width="22.733999999999995" height="22.735" viewBox="38.633,38.633,22.733999999999995,22.735"><desc>Created with Snap</desc><defs/><g/><g/><g><polygon points="48.5,56.368 51.5,56.368 51.5,51.5 56.367,51.5 56.367,48.5 51.5,48.5 51.5,43.633 48.5,43.633 48.5,48.5    43.633,48.5 43.633,51.5 48.5,51.5  " fill="url('#linearGradientSkd30lrk747')" stroke="none" style=""/></g></svg></g><g class="svg-clip svg-visible" transform="matrix(-0.5801,-0.8284,0.8284,-0.5801,301.3206,271.5658)" style="cursor: move; opacity: 1;"><rect x="0" y="0" width="86" height="86" fill="none" class="svg-hitbox" style=""/><svg width="86.41400000000002" height="86.41399999999999" viewBox="6.792999999999999,6.792999999999999,86.41400000000002,86.41399999999999"><desc>Created with Snap</desc><defs/><g/><g/><g><path d="M88.207,48.5h-0.661C86.774,28.967,71.032,13.225,51.5,12.453v-0.66h-3v0.66C28.967,13.225,13.224,28.967,12.452,48.5   h-0.659v3h0.659C13.224,71.033,28.967,86.775,48.5,87.547v0.66h3v-0.66C71.032,86.775,86.774,71.033,87.546,51.5h0.661V48.5z    M48.5,15.453v7.621C34.82,23.828,23.827,34.821,23.073,48.5h-7.621C16.22,30.621,30.621,16.221,48.5,15.453z M15.452,51.5h9.077   h6.367v-3h-4.815C26.828,36.477,36.476,26.829,48.5,26.082v4.814h3V24.53v-9.077C69.378,16.221,83.778,30.621,84.546,48.5h-9.075   h-6.367v3h4.815C73.172,63.524,63.524,73.173,51.5,73.92v-4.816h-3v6.368v9.075C30.621,83.779,16.22,69.379,15.452,51.5z    M51.5,84.547v-7.619C65.18,76.174,76.173,65.18,76.927,51.5h7.619C83.778,69.379,69.378,83.779,51.5,84.547z" fill="url('#linearGradientSkd30lrk74a')" stroke="none" style=""/></g></svg></g><g class="svg-text svg-visible" transform="matrix(1.3743,0,0,1.3743,394,432)" style="pointer-events: fill; cursor: move; opacity: 1;"><path fill="none" style="" d="M-84.1,85.69999999999999 C-20,84.69999999999999 20,84.69999999999999 84.1,85.69999999999999"/><path d="M-65.94999999999999-54.9Q-68.1-52.8 -71.1-52.8Q-74.1-52.8 -76.3-54.95Q-78.5-57.1 -78.5-60.15Q-78.5-63.2 -76.3-65.35Q-74.1-67.5 -71.1-67.5Q-68.1-67.5 -65.94999999999999-65.35Q-63.8-63.2 -63.8-60.1Q-63.8-57 -65.94999999999999-54.9ZM-64.39999999999999 0L-77.8 0L-77.8-48.8L-64.39999999999999-48.8L-64.39999999999999 0ZM-38.099999999999994-16L-30.599999999999994-64.7L-18.199999999999996-64.7L-10.699999999999996-16L-5.099999999999994-64.7L 8.500000000000007-64.7L-1.999999999999993 0L-17.89999999999999 0L-24.39999999999999-39.7L-30.89999999999999 0L-46.8 0L-57.29999999999999-64.7L-43.69999999999999-64.7L-38.099999999999994-16ZM 40.500000000000014-45.2L 40.500000000000014-48.8L 51.80000000000001-48.8L 51.80000000000001 0L 40.500000000000014 0L 40.500000000000014-3.6Q 37.400000000000006 1  30.20000000000001 1L 30.20000000000001 1L 28.10000000000001 1Q 15.70000000000001 1  15.70000000000001-12.2L 15.70000000000001-12.2L 15.70000000000001-36.6Q 15.70000000000001-49.8  28.10000000000001-49.8L 28.10000000000001-49.8L 30.20000000000001-49.8Q 37.400000000000006-49.8  40.500000000000014-45.2L 40.500000000000014-45.2ZM 38.400000000000006-10.6L 38.400000000000006-10.6L 38.400000000000006-38.2Q 38.400000000000006-39  37.85000000000001-39.6Q 37.30000000000001-40.2  36.500000000000014-40.2L 36.500000000000014-40.2L 31.00000000000001-40.2Q 30.20000000000001-40.2  29.65000000000001-39.6Q 29.10000000000001-39  29.10000000000001-38.2L 29.10000000000001-38.2L 29.10000000000001-10.6Q 29.10000000000001-9.8  29.65000000000001-9.2Q 30.20000000000001-8.6  31.00000000000001-8.6L 31.00000000000001-8.6L 36.500000000000014-8.6Q 37.30000000000001-8.6  37.85000000000001-9.2Q 38.400000000000006-9.8  38.400000000000006-10.6ZM 82.70000000000003-56.5L 78.70000000000003-56.5Q 76.50000000000003-56.5  75.40000000000003-55.5Q 74.30000000000003-54.5  74.30000000000003-51.7L 74.30000000000003-51.7L 74.30000000000003-48.8L 82.70000000000003-48.8L 82.70000000000003-38.7L 74.30000000000003-38.7L 74.30000000000003 0L 60.90000000000003 0L 60.90000000000003-52.5Q 60.90000000000003-65.7  73.30000000000003-65.7L 73.30000000000003-65.7L 82.70000000000003-65.7L 82.70000000000003-56.5Z" data-textpath="iWaf" data-text-anchor="middle" data-font-size="100" data-letterspacing="0" data-side="left" data-offset="0" data-dx="0" data-dy="79.27499999999999" data-href="" data-font="Squada One" data-font-src="/Content/clientfonts/squadaone.woff" data-font-scale="contain" transform="translate(0,79.27499999999999)" data-xmlspace="preserve" fill="url('#linearGradientSkd30lrk75p')"/><rect x="0" y="0" width="0" height="0"/></g><g><rect x="0" y="0" width="0" height="0" fill="rgba(255,136,0,0.1)" stroke="#ff8800" style="stroke-width: 1;"/></g><g class="selector-part"><rect x="0" y="0" width="0" height="0" fill="rgba(168,202,236,0.5)" stroke="#3399ff" style="stroke-width: 1;"/></g><g class="selector-part" transform="matrix(1,0,0,1,295,162)"><rect x="0" y="0" width="0" height="0" fill="none" stroke="#2390bb" style="stroke-width: 2;"/><g transform="matrix(0.5,0,0,0.5,0,0)"><svg version="1.1" id="Calque_1" xmlns="http://www.w3.org/2000/svg" xmlns:xlink="http://www.w3.org/1999/xlink" x="0" y="-71px" width="28.94px" height="30px" viewBox="0 -15 28.94 30" enable-background="new 0 -15 28.94 30" xml:space="preserve" style="cursor: pointer;">
<g>
	<path fill="rgba(0,0,0,0)" d="M23.355-9.979c-0.352-0.263-0.712-0.511-1.084-0.739L20.34-7.486c0.317,0.195,0.629,0.414,0.929,0.646&#10;&#9;&#9;L23.355-9.979z" style=""/>
	<path fill="rgba(0,0,0,0)" d="M28.894,0.081L25.092-0.13c0.292,2.317-0.217,4.718-1.539,6.756l-0.037-0.021&#10;&#9;&#9;c-0.376,0.583-0.821,1.137-1.335,1.648c-3.808,3.809-9.902,3.942-13.871,0.396C8.282,8.623,8.255,8.602,8.227,8.576&#10;&#9;&#9;C8.143,8.498,8.059,8.421,7.976,8.339c-0.052-0.051-0.104-0.1-0.153-0.152C7.8,8.163,7.776,8.14,7.753,8.115&#10;&#9;&#9;c-0.084-0.091-0.167-0.18-0.25-0.271v0.002C4.312,4.293,4.087-0.98,6.821-4.782l4.123,4.124l3.401-14.306L0.037-11.566l4.102,4.098&#10;&#9;&#9;C-0.064-2.14,0.193,5.554,4.917,10.587l0,0c0.012,0.016,0.023,0.025,0.033,0.037c0.091,0.098,0.181,0.199,0.278,0.293&#10;&#9;&#9;c0.021,0.023,0.047,0.043,0.07,0.068c0.075,0.074,0.148,0.146,0.225,0.22c0.051,0.045,0.099,0.086,0.15,0.133&#10;&#9;&#9;c0.053,0.047,0.104,0.094,0.156,0.14c0.144,0.13,0.291,0.257,0.439,0.375c0.01,0.012,0.018,0.016,0.027,0.023&#10;&#9;&#9;c5.574,4.563,13.804,4.115,18.842-1.194C27.94,7.722,29.185,3.851,28.894,0.081z" style=""/>
	<path fill="rgba(0,0,0,0)" d="M24.122-3.353l3.544-1.319c-0.426-0.932-0.962-1.826-1.611-2.662L22.88-5.276&#10;&#9;&#9;C23.373-4.675,23.79-4.027,24.122-3.353z" style=""/>
</g>
<desc>Created with Snap</desc><defs/><circle cx="14.5" cy="0" r="15" style="" fill="rgba(0,0,0,0)"/></svg></g><rect x="0" y="-21" width="0" height="21" fill="rgba(255,255,255,0)" stroke="#2390bb" style="stroke-width: 1; cursor: pointer;"/><circle cx="115" cy="253" r="0" fill="#ffffff" stroke="#2390bb" style="stroke-width: 2; cursor: se-resize;"/><circle cx="0" cy="253" r="0" fill="#ffffff" stroke="#2390bb" style="stroke-width: 2; cursor: sw-resize;"/><circle cx="115" cy="0" r="0" fill="#ffffff" stroke="#2390bb" style="stroke-width: 2; cursor: ne-resize;"/><circle cx="0" cy="0" r="0" fill="#ffffff" stroke="#2390bb" style="stroke-width: 2; cursor: nw-resize;"/><circle cx="58" cy="253" r="0" fill="#ffffff" stroke="#2390bb" style="stroke-width: 2; cursor: s-resize;"/><circle cx="58" cy="0" r="0" fill="#ffffff" stroke="#2390bb" style="stroke-width: 2; cursor: n-resize;"/><circle cx="0" cy="127" r="0" fill="#ffffff" stroke="#2390bb" style="stroke-width: 2; cursor: w-resize;"/><circle cx="115" cy="127" r="0" fill="#ffffff" stroke="#2390bb" style="stroke-width: 2; cursor: e-resize;"/><path stroke="#ff0000" fill="none" style="stroke-width: 3;"/><line x1="0" x2="0" y1="0" y2="0" fill="rgba(255,255,255,0)" stroke="#2390bb" style="stroke-width: 1;"/><line x1="0" x2="0" y1="0" y2="0" fill="rgba(255,255,255,0)" stroke="#2390bb" style="stroke-width: 1;"/><circle cx="0" cy="0" r="0" fill="#ff0000" stroke="#2390bb" style="stroke-width: 2; cursor: pointer;"/><circle cx="0" cy="0" r="0" fill="#ffa500" stroke="#2390bb" style="stroke-width: 2; cursor: pointer;"/><circle cx="0" cy="0" r="0" fill="#ffa500" stroke="#2390bb" style="stroke-width: 2; cursor: pointer;"/><circle cx="0" cy="0" r="0" fill="#ff0000" stroke="#2390bb" style="stroke-width: 2; cursor: pointer;"/><g style="cursor: pointer; visibility: hidden; opacity: 0;" transform="matrix(1,0,0,1,-50,-15)"><rect x="0" y="0" width="30" height="30" fill="#2390bb" rx="5" ry="5" style=""/><rect x="6" y="6" width="18" height="4" style="" fill="#ffffff"/><rect x="6" y="13" width="18" height="4" fill="#ffffff" style=""/><rect x="6" y="20" width="18" height="4" fill="#ffffff" style=""/></g></g></svg>